<?xml version="1.0" encoding="UTF-8" standalone="no"?>
<!DOCTYPE svg PUBLIC "-//W3C//DTD SVG 1.1//EN"
 "http://www.w3.org/Graphics/SVG/1.1/DTD/svg11.dtd">
<!-- Generated by graphviz version 2.36.0 (20140111.2315)
 -->
<!-- Title: task_status Pages: 1 -->
<svg width="660pt" height="422pt"
 viewBox="0.00 0.00 659.58 422.00" xmlns="http://www.w3.org/2000/svg" xmlns:xlink="http://www.w3.org/1999/xlink">
<g id="graph0" class="graph" transform="scale(1 1) rotate(0) translate(4 418)">
<title>task_status</title>
<polygon fill="white" stroke="none" points="-4,4 -4,-418 655.584,-418 655.584,4 -4,4"/>
<g id="clust1" class="cluster"><title>cluster_0</title>
<polygon fill="none" stroke="black" points="156.584,-212 156.584,-406 282.584,-406 282.584,-212 156.584,-212"/>
<text text-anchor="middle" x="219.584" y="-390.8" font-family="Times,serif" font-size="14.00">Local</text>
</g>
<g id="clust2" class="cluster"><title>cluster_1</title>
<polygon fill="pink" stroke="pink" points="164.584,-300 164.584,-375 274.584,-375 274.584,-300 164.584,-300"/>
<text text-anchor="middle" x="219.584" y="-359.8" font-family="Times,serif" font-size="14.00">SoS Task Queue</text>
</g>
<g id="clust3" class="cluster"><title>cluster_2</title>
<polygon fill="none" stroke="black" points="290.584,-8 290.584,-406 634.584,-406 634.584,-8 290.584,-8"/>
<text text-anchor="middle" x="462.584" y="-390.8" font-family="Times,serif" font-size="14.00">Remote</text>
</g>
<g id="clust4" class="cluster"><title>cluster_2</title>
<polygon fill="pink" stroke="pink" points="378.584,-212 378.584,-375 488.584,-375 488.584,-212 378.584,-212"/>
<text text-anchor="middle" x="433.584" y="-359.8" font-family="Times,serif" font-size="14.00">PBS Job Queue</text>
</g>
<!-- pending_task -->
<g id="node1" class="node"><title>pending_task</title>
<ellipse fill="lightgrey" stroke="black" cx="218.584" cy="-326" rx="37.5442" ry="18"/>
<text text-anchor="middle" x="218.584" y="-322.3" font-family="Times,serif" font-size="14.00">pendng</text>
</g>
<!-- completed_task -->
<g id="node2" class="node"><title>completed_task</title>
<ellipse fill="lightgrey" stroke="black" cx="225.584" cy="-238" rx="48.6179" ry="18"/>
<text text-anchor="middle" x="225.584" y="-234.3" font-family="Times,serif" font-size="14.00">completed</text>
</g>
<!-- pending_task&#45;&gt;completed_task -->
<!-- submitted_task -->
<g id="node3" class="node"><title>submitted_task</title>
<ellipse fill="lightgrey" stroke="black" cx="433.584" cy="-326" rx="46.1964" ry="18"/>
<text text-anchor="middle" x="433.584" y="-322.3" font-family="Times,serif" font-size="14.00">submitted</text>
</g>
<!-- pending_task&#45;&gt;submitted_task -->
<g id="edge7" class="edge"><title>pending_task&#45;&gt;submitted_task</title>
<path fill="none" stroke="blue" stroke-width="2" d="M256.034,-326C289.245,-326 338.256,-326 376.375,-326"/>
<polygon fill="blue" stroke="blue" stroke-width="2" points="376.816,-329.5 386.816,-326 376.816,-322.5 376.816,-329.5"/>
<text text-anchor="middle" x="321.186" y="-347.8" font-family="Times,serif" font-size="14.00">Submit task</text>
<text text-anchor="middle" x="321.186" y="-332.8" font-family="Times,serif" font-size="14.00">(w/o existing result)</text>
</g>
<!-- running_task -->
<g id="node4" class="node"><title>running_task</title>
<ellipse fill="lightgrey" stroke="black" cx="425.584" cy="-238" rx="38.4949" ry="18"/>
<text text-anchor="middle" x="425.584" y="-234.3" font-family="Times,serif" font-size="14.00">running</text>
</g>
<!-- pending_task&#45;&gt;running_task -->
<!-- completed_remote_task -->
<g id="node5" class="node"><title>completed_remote_task</title>
<ellipse fill="lightgrey" stroke="black" cx="375.584" cy="-136" rx="76.5394" ry="18"/>
<text text-anchor="middle" x="375.584" y="-132.3" font-family="Times,serif" font-size="14.00">completed&#45;remote</text>
</g>
<!-- pending_task&#45;&gt;completed_remote_task -->
<g id="edge6" class="edge"><title>pending_task&#45;&gt;completed_remote_task</title>
<path fill="none" stroke="green" stroke-width="2" d="M183.201,-319.894C111.325,-308.089 -40.7732,-274.983 10.5838,-212 45.4786,-169.206 196.138,-150.135 292.654,-142.177"/>
<polygon fill="green" stroke="green" stroke-width="2" points="293.002,-145.661 302.69,-141.374 292.443,-138.683 293.002,-145.661"/>
<text text-anchor="middle" x="81.5838" y="-241.8" font-family="Times,serif" font-size="14.00">Reuse existing result</text>
<text text-anchor="middle" x="81.5838" y="-226.8" font-family="Times,serif" font-size="14.00">(resume without &#45;s force)</text>
</g>
<!-- submitted_task&#45;&gt;running_task -->
<g id="edge1" class="edge"><title>submitted_task&#45;&gt;running_task</title>
<path fill="none" stroke="blue" stroke-width="2" d="M432.003,-308.009C430.904,-296.19 429.414,-280.171 428.146,-266.542"/>
<polygon fill="blue" stroke="blue" stroke-width="2" points="431.6,-265.883 427.188,-256.25 424.63,-266.531 431.6,-265.883"/>
<text text-anchor="middle" x="457.584" y="-278.3" font-family="Times,serif" font-size="14.00">scheduler</text>
</g>
<!-- running_task&#45;&gt;completed_remote_task -->
<g id="edge2" class="edge"><title>running_task&#45;&gt;completed_remote_task</title>
<path fill="none" stroke="blue" stroke-width="2" d="M389.835,-231.104C372.789,-226.302 353.906,-217.628 343.584,-202 336.236,-190.874 338.758,-184.429 343.584,-172 344.977,-168.412 346.928,-164.967 349.188,-161.733"/>
<polygon fill="blue" stroke="blue" stroke-width="2" points="352.119,-163.676 355.716,-153.71 346.69,-159.258 352.119,-163.676"/>
<text text-anchor="middle" x="373.584" y="-190.8" font-family="Times,serif" font-size="14.00">completed</text>
<text text-anchor="middle" x="373.584" y="-175.8" font-family="Times,serif" font-size="14.00">with result</text>
</g>
<!-- failed_task -->
<g id="node7" class="node"><title>failed_task</title>
<ellipse fill="none" stroke="black" cx="501.584" cy="-136" rx="31.2965" ry="18"/>
<text text-anchor="middle" x="501.584" y="-132.3" font-family="Times,serif" font-size="14.00">failed</text>
</g>
<!-- running_task&#45;&gt;failed_task -->
<g id="edge4" class="edge"><title>running_task&#45;&gt;failed_task</title>
<path fill="none" stroke="red" d="M421.222,-220.105C418.619,-206.083 417.38,-186.209 426.584,-172 427.901,-169.966 448.663,-160.354 468.007,-151.717"/>
<polygon fill="red" stroke="red" points="469.578,-154.849 477.298,-147.593 466.738,-148.451 469.578,-154.849"/>
<text text-anchor="middle" x="456.584" y="-190.8" font-family="Times,serif" font-size="14.00">failed</text>
<text text-anchor="middle" x="456.584" y="-175.8" font-family="Times,serif" font-size="14.00">with result</text>
</g>
<!-- aborted_task -->
<g id="node8" class="node"><title>aborted_task</title>
<ellipse fill="none" stroke="black" cx="588.584" cy="-136" rx="37.5442" ry="18"/>
<text text-anchor="middle" x="588.584" y="-132.3" font-family="Times,serif" font-size="14.00">aborted</text>
</g>
<!-- running_task&#45;&gt;aborted_task -->
<g id="edge3" class="edge"><title>running_task&#45;&gt;aborted_task</title>
<path fill="none" stroke="red" d="M449.488,-223.625C460.805,-217.206 474.466,-209.332 486.584,-202 511.154,-187.133 538.583,-169.6 558.803,-156.493"/>
<polygon fill="red" stroke="red" points="560.797,-159.371 567.274,-150.987 556.982,-153.502 560.797,-159.371"/>
<text text-anchor="middle" x="592.584" y="-190.8" font-family="Times,serif" font-size="14.00">killed or self&#45;aborted</text>
<text text-anchor="middle" x="592.584" y="-175.8" font-family="Times,serif" font-size="14.00">without result</text>
</g>
<!-- completed_remote_task&#45;&gt;completed_task -->
<g id="edge8" class="edge"><title>completed_remote_task&#45;&gt;completed_task</title>
<path fill="none" stroke="blue" stroke-width="2" d="M306.936,-143.945C286.444,-148.989 265.286,-157.547 249.584,-172 238.899,-181.835 232.954,-196.85 229.655,-209.972"/>
<polygon fill="blue" stroke="blue" stroke-width="2" points="226.189,-209.445 227.537,-219.954 233.036,-210.898 226.189,-209.445"/>
<text text-anchor="middle" x="292.584" y="-190.8" font-family="Times,serif" font-size="14.00">Transmit result</text>
<text text-anchor="middle" x="292.584" y="-175.8" font-family="Times,serif" font-size="14.00">(&#45;w mode)</text>
</g>
<!-- result_mismatch -->
<g id="node6" class="node"><title>result_mismatch</title>
<ellipse fill="none" stroke="black" cx="375.584" cy="-34" rx="69.3156" ry="18"/>
<text text-anchor="middle" x="375.584" y="-30.3" font-family="Times,serif" font-size="14.00">result&#45;mismatch</text>
</g>
<!-- completed_remote_task&#45;&gt;result_mismatch -->
<g id="edge5" class="edge"><title>completed_remote_task&#45;&gt;result_mismatch</title>
<path fill="none" stroke="red" d="M375.584,-117.581C375.584,-102.382 375.584,-80.0669 375.584,-62.4644"/>
<polygon fill="red" stroke="red" points="379.084,-62.219 375.584,-52.2191 372.084,-62.2191 379.084,-62.219"/>
<text text-anchor="middle" x="420.084" y="-88.8" font-family="Times,serif" font-size="14.00">Result removed</text>
<text text-anchor="middle" x="420.084" y="-73.8" font-family="Times,serif" font-size="14.00">or changed</text>
</g>
</g>
</svg>
