<?xml version="1.0" encoding="UTF-8" standalone="no"?>
<!DOCTYPE svg PUBLIC "-//W3C//DTD SVG 1.1//EN"
 "http://www.w3.org/Graphics/SVG/1.1/DTD/svg11.dtd">
<!-- Generated by graphviz version 2.36.0 (20140111.2315)
 -->
<!-- Title: task_status Pages: 1 -->
<svg width="755pt" height="574pt"
 viewBox="0.00 0.00 755.00 574.00" xmlns="http://www.w3.org/2000/svg" xmlns:xlink="http://www.w3.org/1999/xlink">
<g id="graph0" class="graph" transform="scale(1 1) rotate(0) translate(4 570)">
<title>task_status</title>
<polygon fill="white" stroke="none" points="-4,4 -4,-570 751,-570 751,4 -4,4"/>
<g id="clust3" class="cluster"><title>cluster_2</title>
<polygon fill="none" stroke="black" points="8,-16 8,-558 412,-558 412,-16 8,-16"/>
<text text-anchor="middle" x="210" y="-542.8" font-family="Times,serif" font-size="14.00">Remote</text>
</g>
<g id="clust4" class="cluster"><title>cluster_2</title>
<polygon fill="none" stroke="black" stroke-dasharray="1,5" points="178,-364 178,-527 282,-527 282,-364 178,-364"/>
<text text-anchor="middle" x="230" y="-511.8" font-family="Times,serif" font-size="14.00">PBS Job Queue</text>
</g>
<g id="clust1" class="cluster"><title>cluster_0</title>
<polygon fill="none" stroke="black" points="420,-8 420,-214 632,-214 632,-8 420,-8"/>
<text text-anchor="middle" x="526" y="-198.8" font-family="Times,serif" font-size="14.00">Local</text>
</g>
<g id="clust2" class="cluster"><title>cluster_1</title>
<polygon fill="none" stroke="black" stroke-dasharray="1,5" points="483,-16 483,-91 593,-91 593,-16 483,-16"/>
<text text-anchor="middle" x="538" y="-75.8" font-family="Times,serif" font-size="14.00">Task Queue</text>
</g>
<!-- pending_task -->
<g id="node1" class="node"><title>pending_task</title>
<ellipse fill="lightgrey" stroke="black" cx="584" cy="-165" rx="39.9464" ry="18"/>
<text text-anchor="middle" x="584" y="-161.3" font-family="Times,serif" font-size="14.00">pending</text>
</g>
<!-- submitted_task -->
<g id="node2" class="node"><title>submitted_task</title>
<ellipse fill="lightgrey" stroke="black" cx="538" cy="-42" rx="46.1964" ry="18"/>
<text text-anchor="middle" x="538" y="-38.3" font-family="Times,serif" font-size="14.00">submitted</text>
</g>
<!-- pending_task&#45;&gt;submitted_task -->
<g id="edge1" class="edge"><title>pending_task&#45;&gt;submitted_task</title>
<path fill="none" stroke="blue" stroke-width="2" d="M551.718,-153.958C539.909,-148.546 527.789,-140.539 521,-129 510.255,-110.738 516.224,-86.905 523.906,-68.9607"/>
<polygon fill="blue" stroke="blue" stroke-width="2" points="527.186,-70.211 528.255,-59.6703 520.846,-67.2433 527.186,-70.211"/>
<text text-anchor="middle" x="579.5" y="-110.3" font-family="Times,serif" font-size="14.00">&lt; max_running_jobs</text>
</g>
<!-- queued_task -->
<g id="node4" class="node"><title>queued_task</title>
<ellipse fill="lightgrey" stroke="black" cx="230" cy="-478" rx="37.0701" ry="18"/>
<text text-anchor="middle" x="230" y="-474.3" font-family="Times,serif" font-size="14.00">queued</text>
</g>
<!-- submitted_task&#45;&gt;queued_task -->
<g id="edge10" class="edge"><title>submitted_task&#45;&gt;queued_task</title>
<path fill="none" stroke="blue" stroke-width="2" d="M571.83,-54.3563C593.291,-63.2527 619.946,-77.7279 636,-99 653.922,-122.747 652,-134.249 652,-164 652,-391 652,-391 652,-391 652,-466.783 387.402,-476.473 277.244,-477.223"/>
<polygon fill="blue" stroke="blue" stroke-width="2" points="277.064,-473.724 267.08,-477.27 277.096,-480.724 277.064,-473.724"/>
<text text-anchor="middle" x="699.5" y="-291.8" font-family="Times,serif" font-size="14.00">task translation </text>
<text text-anchor="middle" x="699.5" y="-276.8" font-family="Times,serif" font-size="14.00">and transmission</text>
</g>
<!-- completed_task -->
<g id="node3" class="node"><title>completed_task</title>
<ellipse fill="lightgrey" stroke="black" cx="477" cy="-165" rx="48.6179" ry="18"/>
<text text-anchor="middle" x="477" y="-161.3" font-family="Times,serif" font-size="14.00">completed</text>
</g>
<!-- running_task -->
<g id="node5" class="node"><title>running_task</title>
<ellipse fill="lightgrey" stroke="black" cx="225" cy="-390" rx="38.4949" ry="18"/>
<text text-anchor="middle" x="225" y="-386.3" font-family="Times,serif" font-size="14.00">running</text>
</g>
<!-- queued_task&#45;&gt;running_task -->
<g id="edge2" class="edge"><title>queued_task&#45;&gt;running_task</title>
<path fill="none" stroke="blue" stroke-width="2" d="M228.988,-459.597C228.299,-447.746 227.373,-431.817 226.587,-418.292"/>
<polygon fill="blue" stroke="blue" stroke-width="2" points="230.068,-417.864 225.993,-408.084 223.08,-418.27 230.068,-417.864"/>
<text text-anchor="middle" x="255" y="-430.3" font-family="Times,serif" font-size="14.00">scheduler</text>
</g>
<!-- completed_remote_task -->
<g id="node6" class="node"><title>completed_remote_task</title>
<ellipse fill="lightgrey" stroke="black" cx="93" cy="-288" rx="76.5394" ry="18"/>
<text text-anchor="middle" x="93" y="-284.3" font-family="Times,serif" font-size="14.00">completed&#45;remote</text>
</g>
<!-- running_task&#45;&gt;completed_remote_task -->
<g id="edge3" class="edge"><title>running_task&#45;&gt;completed_remote_task</title>
<path fill="none" stroke="blue" stroke-width="2" d="M186.777,-386.658C141.59,-382.998 70.4289,-374.132 54,-354 45.57,-343.67 48.5668,-336.176 54,-324 55.8432,-319.869 58.4414,-316.023 61.432,-312.506"/>
<polygon fill="blue" stroke="blue" stroke-width="2" points="63.9505,-314.937 68.4645,-305.352 58.9584,-310.03 63.9505,-314.937"/>
<text text-anchor="middle" x="94" y="-342.8" font-family="Times,serif" font-size="14.00">job completed</text>
<text text-anchor="middle" x="94" y="-327.8" font-family="Times,serif" font-size="14.00">with result</text>
</g>
<!-- failed_task -->
<g id="node10" class="node"><title>failed_task</title>
<ellipse fill="none" stroke="black" cx="219" cy="-288" rx="31.2965" ry="18"/>
<text text-anchor="middle" x="219" y="-284.3" font-family="Times,serif" font-size="14.00">failed</text>
</g>
<!-- running_task&#45;&gt;failed_task -->
<g id="edge5" class="edge"><title>running_task&#45;&gt;failed_task</title>
<path fill="none" stroke="red" d="M189.251,-383.104C172.205,-378.302 153.322,-369.628 143,-354 135.652,-342.874 135.809,-335.228 143,-324 144.336,-321.914 165.823,-312.115 185.609,-303.414"/>
<polygon fill="red" stroke="red" points="187.035,-306.611 194.795,-299.398 184.23,-300.197 187.035,-306.611"/>
<text text-anchor="middle" x="173" y="-342.8" font-family="Times,serif" font-size="14.00">failed</text>
<text text-anchor="middle" x="173" y="-327.8" font-family="Times,serif" font-size="14.00">with result</text>
</g>
<!-- killed_task -->
<g id="node11" class="node"><title>killed_task</title>
<ellipse fill="none" stroke="black" cx="299" cy="-288" rx="31.2965" ry="18"/>
<text text-anchor="middle" x="299" y="-284.3" font-family="Times,serif" font-size="14.00">killed</text>
</g>
<!-- running_task&#45;&gt;killed_task -->
<g id="edge6" class="edge"><title>running_task&#45;&gt;killed_task</title>
<path fill="none" stroke="red" d="M220.625,-371.848C218.081,-357.858 216.932,-338.162 226,-324 228.469,-320.145 247.333,-311.148 265.265,-303.242"/>
<polygon fill="red" stroke="red" points="266.691,-306.438 274.465,-299.24 263.899,-300.019 266.691,-306.438"/>
<text text-anchor="middle" x="265" y="-342.8" font-family="Times,serif" font-size="14.00">sos kill</text>
<text text-anchor="middle" x="265" y="-327.8" font-family="Times,serif" font-size="14.00">without result</text>
</g>
<!-- dead_task -->
<g id="node12" class="node"><title>dead_task</title>
<ellipse fill="none" stroke="black" cx="376" cy="-288" rx="27.4223" ry="18"/>
<text text-anchor="middle" x="376" y="-284.3" font-family="Times,serif" font-size="14.00">dead</text>
</g>
<!-- running_task&#45;&gt;dead_task -->
<g id="edge4" class="edge"><title>running_task&#45;&gt;dead_task</title>
<path fill="none" stroke="red" d="M254.657,-378.46C269.987,-372.38 288.649,-363.964 304,-354 322.831,-341.778 341.575,-324.658 355.216,-311.056"/>
<polygon fill="red" stroke="red" points="357.722,-313.5 362.237,-303.915 352.73,-308.592 357.722,-313.5"/>
<text text-anchor="middle" x="381" y="-342.8" font-family="Times,serif" font-size="14.00">aborted</text>
<text text-anchor="middle" x="381" y="-327.8" font-family="Times,serif" font-size="14.00">without result</text>
</g>
<!-- completed_remote_task&#45;&gt;completed_task -->
<g id="edge11" class="edge"><title>completed_remote_task&#45;&gt;completed_task</title>
<path fill="none" stroke="blue" stroke-width="2" d="M147.942,-275.489C158.238,-273.517 168.928,-271.593 179,-270 245.756,-259.439 264.815,-269.855 330,-252 370.303,-240.961 380.188,-235.534 416,-214 428.211,-206.657 440.741,-197.192 451.244,-188.61"/>
<polygon fill="blue" stroke="blue" stroke-width="2" points="453.757,-191.071 459.187,-181.974 449.269,-185.699 453.757,-191.071"/>
<text text-anchor="middle" x="454.5" y="-240.8" font-family="Times,serif" font-size="14.00">Result transmitted</text>
<text text-anchor="middle" x="454.5" y="-225.8" font-family="Times,serif" font-size="14.00">(&#45;w mode)</text>
</g>
<!-- failed_missing_output -->
<g id="node7" class="node"><title>failed_missing_output</title>
<ellipse fill="none" stroke="black" cx="105" cy="-165" rx="89.0632" ry="18"/>
<text text-anchor="middle" x="105" y="-161.3" font-family="Times,serif" font-size="14.00">failed&#45;missing&#45;output</text>
</g>
<!-- completed_remote_task&#45;&gt;failed_missing_output -->
<g id="edge8" class="edge"><title>completed_remote_task&#45;&gt;failed_missing_output</title>
<path fill="none" stroke="red" d="M94.6939,-269.92C96.6659,-250.035 99.9498,-216.923 102.28,-193.423"/>
<polygon fill="red" stroke="red" points="105.772,-193.681 103.276,-183.385 98.806,-192.99 105.772,-193.681"/>
<text text-anchor="middle" x="144.5" y="-233.3" font-family="Times,serif" font-size="14.00">Result removed</text>
</g>
<!-- completed_old -->
<g id="node8" class="node"><title>completed_old</title>
<ellipse fill="none" stroke="black" cx="275" cy="-165" rx="63.0666" ry="18"/>
<text text-anchor="middle" x="275" y="-161.3" font-family="Times,serif" font-size="14.00">completed&#45;old</text>
</g>
<!-- completed_remote_task&#45;&gt;completed_old -->
<g id="edge7" class="edge"><title>completed_remote_task&#45;&gt;completed_old</title>
<path fill="none" stroke="black" d="M143.458,-274.46C160.019,-269.04 178.007,-261.672 193,-252 218.369,-235.634 241.53,-209.875 256.718,-190.811"/>
<polygon fill="black" stroke="black" points="259.541,-192.882 262.917,-182.84 254.015,-188.585 259.541,-192.882"/>
<text text-anchor="middle" x="277.5" y="-240.8" font-family="Times,serif" font-size="14.00">compared to</text>
<text text-anchor="middle" x="277.5" y="-225.8" font-family="Times,serif" font-size="14.00">re&#45;submitted task</text>
</g>
<!-- failed_old_missing_output -->
<g id="node9" class="node"><title>failed_old_missing_output</title>
<ellipse fill="none" stroke="black" cx="120" cy="-42" rx="103.486" ry="18"/>
<text text-anchor="middle" x="120" y="-38.3" font-family="Times,serif" font-size="14.00">failed&#45;old&#45;missing&#45;output</text>
</g>
<!-- failed_missing_output&#45;&gt;failed_old_missing_output -->
<g id="edge9" class="edge"><title>failed_missing_output&#45;&gt;failed_old_missing_output</title>
<path fill="none" stroke="black" d="M107.117,-146.92C109.582,-127.035 113.687,-93.9228 116.6,-70.4232"/>
<polygon fill="black" stroke="black" points="120.088,-70.7393 117.845,-60.3846 113.141,-69.878 120.088,-70.7393"/>
<text text-anchor="middle" x="161.5" y="-117.8" font-family="Times,serif" font-size="14.00">Compared to</text>
<text text-anchor="middle" x="161.5" y="-102.8" font-family="Times,serif" font-size="14.00">re&#45;submitted task</text>
</g>
<!-- completed_old&#45;&gt;completed_task -->
<g id="edge12" class="edge"><title>completed_old&#45;&gt;completed_task</title>
<path fill="none" stroke="black" d="M338.083,-165C363.722,-165 393.175,-165 418.343,-165"/>
<polygon fill="black" stroke="black" points="418.482,-168.5 428.481,-165 418.481,-161.5 418.482,-168.5"/>
<text text-anchor="middle" x="383.127" y="-171.8" font-family="Times,serif" font-size="14.00">not &#45;s force</text>
</g>
</g>
</svg>
